<?xml version="1.0" standalone="no"?>
<!DOCTYPE svg PUBLIC "-//W3C//DTD SVG 20010904//EN"
 "http://www.w3.org/TR/2001/REC-SVG-20010904/DTD/svg10.dtd">
<svg version="1.0" xmlns="http://www.w3.org/2000/svg"
 width="156.000000pt" height="156.000000pt" viewBox="0 0 156.000000 156.000000"
 preserveAspectRatio="xMidYMid meet">
<metadata>
Created by potrace 1.14, written by Peter Selinger 2001-2017
</metadata>
<g transform="translate(0.000000,156.000000) scale(0.100000,-0.100000)"
fill="#000000" stroke="none">
<path d="M20 1472 c0 -4 5 -23 11 -42 5 -19 12 -42 14 -50 2 -8 38 -132 80
-275 43 -143 78 -264 80 -270 1 -5 6 -18 10 -29 8 -19 4 -35 -130 -489 -37
-125 -65 -230 -62 -233 2 -3 60 11 127 31 67 20 129 38 138 40 10 3 109 32
222 65 129 38 214 58 230 55 14 -3 54 -15 90 -25 268 -81 583 -171 586 -167 4
4 -21 91 -157 557 l-39 135 16 60 c8 33 17 67 19 75 2 8 40 138 85 289 44 151
78 276 76 279 -3 2 -130 -33 -283 -77 -153 -45 -309 -91 -348 -102 l-70 -20
-340 100 c-187 56 -343 101 -347 101 -5 0 -8 -3 -8 -8z"/>
</g>
</svg>
